<?xml version="1.0" encoding="UTF-8"?>
<svg id="Capa_1" data-name="Capa 1" xmlns="http://www.w3.org/2000/svg" viewBox="0 0 1609.83 1856.64">
  <defs>
    <style>
      .cls-1 {
        fill: #4a8b33;
      }

      .cls-2 {
        fill: #bb5a29;
      }

      .cls-3 {
        fill: #006934;
      }

      .cls-4 {
        fill: #c36c30;
      }

      .cls-5 {
        fill: #58aa32;
      }

      .cls-6 {
        fill: #a3c635;
      }

      .cls-7 {
        fill: #e58855;
      }

      .cls-8 {
        fill: #f1a977;
      }
    </style>
  </defs>
  <path class="cls-8" d="M953.9,729.89l113.29-53.54-40.77-60.2,114.29,25.44,18.84-8.91-25.33-72.04,81.88,45.3,48.68-23.02-14.22-79.83,71.27,52.87,140.91-66.62-31.59-55.82-5.26-9.3,105.57,32.58.06.02,78.32-37.02c-6.32-2.72-12.58-5.32-18.81-7.87-1.44-.59-2.88-1.18-4.32-1.75-6.11-2.47-12.19-4.88-18.21-7.18-.71-.27-1.43-.53-2.15-.8-5.52-2.09-10.99-4.11-16.43-6.06-1.29-.46-2.57-.93-3.87-1.39-5.88-2.08-11.71-4.09-17.5-6.02-1.05-.34-2.09-.68-3.13-1.02-5.17-1.7-10.31-3.34-15.41-4.91-1.05-.32-2.1-.65-3.14-.97-5.69-1.73-11.32-3.38-16.92-4.95-1.18-.33-2.36-.65-3.53-.98-5.14-1.42-10.23-2.78-15.28-4.07-.68-.18-1.37-.36-2.03-.53-5.52-1.39-10.99-2.7-16.41-3.95-1.22-.28-2.44-.55-3.66-.82-5.41-1.22-10.81-2.38-16.14-3.45-.05,0-.1-.02-.15-.03-5.39-1.07-10.73-2.05-16.03-2.98-1.18-.21-2.35-.41-3.51-.61-5.23-.88-10.41-1.71-15.54-2.46-.51-.07-1.01-.14-1.52-.21-4.74-.68-9.44-1.29-14.11-1.84-1.1-.14-2.19-.27-3.29-.39-4.96-.57-9.9-1.08-14.77-1.52-.86-.07-1.7-.14-2.55-.21-4.34-.37-8.66-.69-12.94-.95-.93-.06-1.87-.13-2.8-.18-4.76-.27-9.48-.48-14.15-.63-1-.04-1.99-.05-2.98-.08-4.23-.11-8.43-.18-12.59-.19-.48,0-.97-.03-1.44-.03-.14,0-.27.02-.41.02-7.19,0-14.29.15-21.27.44-.17.01-.33.02-.5.03-6.84.3-13.57.73-20.22,1.29-.55.05-1.1.11-1.64.15-6.27.56-12.46,1.23-18.57,2.01-.71.09-1.39.18-2.09.27-6,.8-11.92,1.71-17.75,2.72-.65.11-1.3.22-1.96.34-5.94,1.06-11.8,2.22-17.57,3.5-.46.1-.93.2-1.4.3-6.13,1.37-12.17,2.85-18.11,4.45-.06.02-.11.02-.17.04-5.99,1.62-11.88,3.36-17.68,5.19-.4.13-.8.27-1.2.39-5.42,1.73-10.76,3.57-16.02,5.49-.59.21-1.16.43-1.74.64-5.11,1.89-10.14,3.86-15.09,5.92-.59.25-1.18.5-1.78.74-4.96,2.09-9.86,4.27-14.68,6.51-.5.23-.98.45-1.47.68-5.02,2.38-9.97,4.82-14.83,7.35-.23.12-.45.23-.66.34-5.04,2.63-9.99,5.36-14.85,8.16-.28.16-.54.31-.82.47-4.62,2.67-9.17,5.42-13.64,8.24-.48.3-.95.61-1.42.9-4.27,2.71-8.49,5.5-12.62,8.32-.53.37-1.05.73-1.57,1.09-4.11,2.84-8.15,5.74-12.11,8.68-.47.35-.95.7-1.4,1.05-4.09,3.05-8.09,6.16-12.03,9.32-.3.24-.59.47-.89.71-4.16,3.37-8.26,6.79-12.27,10.26-.15.12-.29.24-.42.36-3.91,3.39-7.73,6.83-11.49,10.32-.36.34-.72.68-1.09,1.02-3.53,3.29-7.01,6.62-10.41,10-.44.44-.89.88-1.33,1.32-3.34,3.33-6.61,6.68-9.82,10.07-.42.45-.84.88-1.25,1.32-3.27,3.47-6.46,6.96-9.6,10.48-.3.35-.62.69-.92,1.03-3.31,3.74-6.56,7.5-9.73,11.29-.1.12-.21.23-.3.36-3.23,3.86-6.38,7.74-9.47,11.65-.27.32-.52.66-.78.99-2.86,3.63-5.68,7.28-8.42,10.95-.35.48-.7.95-1.06,1.42-2.64,3.55-5.24,7.12-7.79,10.7-.35.5-.71,1.01-1.07,1.5-2.54,3.61-5.03,7.22-7.46,10.83-.29.44-.59.87-.89,1.3-2.52,3.77-4.98,7.54-7.39,11.3-.17.26-.34.52-.5.78-2.51,3.94-4.95,7.87-7.34,11.8-.19.31-.38.62-.57.93-2.23,3.7-4.41,7.39-6.54,11.07-.28.49-.55.97-.84,1.46-2.02,3.52-4,7.03-5.93,10.52-.3.55-.61,1.1-.91,1.65-1.89,3.46-3.75,6.91-5.55,10.33-.28.52-.55,1.05-.83,1.57-1.83,3.51-3.61,6.98-5.35,10.44-.13.26-.27.53-.41.8,0,0,0,.01,0,.02C936.22,451.32,935.98,144.03,486.95,0l34.74,79.36.06.02,101,44.78-10.07,3.56-60.49,21.34,62.5,142.8,88.46,6.95-63.15,50.85,21.59,49.32,91.5,19.62-66.42,37.68,8.36,19.09,102.88,55.89-70.28,18.62,68.34,156.12c-.15-.18-.31-.37-.46-.55-1.89-2.32-3.83-4.67-5.81-7.04-.32-.39-.64-.78-.98-1.17-2-2.39-4.05-4.8-6.15-7.24-.34-.4-.68-.79-1.03-1.2-2.12-2.45-4.29-4.93-6.51-7.42-.34-.39-.68-.77-1.02-1.16-2.25-2.52-4.55-5.07-6.9-7.62-.34-.37-.66-.73-1-1.09-2.41-2.61-4.86-5.24-7.36-7.88-.3-.32-.59-.63-.89-.94-2.57-2.7-5.2-5.41-7.87-8.13-.3-.31-.6-.61-.9-.92-2.73-2.78-5.52-5.56-8.37-8.35-.32-.3-.64-.62-.96-.93-2.76-2.7-5.57-5.4-8.43-8.11-.39-.37-.79-.74-1.18-1.11-2.79-2.61-5.61-5.23-8.48-7.83-.48-.44-.97-.88-1.46-1.32-2.81-2.54-5.67-5.07-8.56-7.6-.56-.48-1.12-.97-1.69-1.46-2.86-2.47-5.76-4.94-8.7-7.39-.62-.52-1.24-1.03-1.86-1.54-2.93-2.43-5.89-4.84-8.9-7.23-.66-.53-1.32-1.05-1.98-1.58-3-2.37-6.04-4.73-9.12-7.07-.7-.54-1.41-1.07-2.12-1.61-3.09-2.32-6.22-4.64-9.38-6.93-.72-.52-1.43-1.04-2.15-1.55-3.2-2.29-6.43-4.55-9.71-6.8-.72-.49-1.45-.99-2.18-1.48-3.32-2.26-6.68-4.48-10.09-6.68-.7-.46-1.4-.91-2.11-1.37-3.47-2.22-6.99-4.41-10.55-6.58-.66-.41-1.31-.8-1.97-1.2-3.66-2.2-7.36-4.36-11.09-6.48-.59-.34-1.17-.68-1.76-1.01-3.87-2.18-7.78-4.32-11.73-6.41-.48-.26-.97-.52-1.46-.78-4.14-2.18-8.32-4.3-12.55-6.37-.47-.23-.94-.46-1.41-.68-4.25-2.07-8.55-4.09-12.89-6.04-.47-.21-.95-.41-1.41-.62-4.22-1.88-8.48-3.71-12.79-5.48-.57-.23-1.16-.46-1.73-.69-4.24-1.72-8.51-3.39-12.83-4.99-.64-.24-1.29-.46-1.94-.7-4.28-1.56-8.6-3.08-12.96-4.52-.7-.23-1.4-.46-2.11-.68-4.34-1.41-8.71-2.77-13.14-4.05-.73-.21-1.47-.43-2.2-.63-4.42-1.26-8.88-2.46-13.38-3.59-.75-.18-1.5-.38-2.26-.55-4.52-1.11-9.09-2.15-13.7-3.12-.74-.16-1.48-.31-2.22-.47-4.66-.95-9.35-1.82-14.09-2.62-.71-.12-1.43-.24-2.14-.37-4.8-.78-9.64-1.48-14.52-2.11-.67-.09-1.33-.18-2-.26-4.98-.61-10-1.13-15.06-1.57-.59-.05-1.18-.11-1.77-.16-5.19-.43-10.42-.75-15.7-.98-.47-.02-.94-.05-1.41-.07-5.45-.22-10.93-.34-16.46-.35-.22,0-.44-.01-.67-.01-.13,0-.27,0-.41,0-3.27,0-6.55.04-9.86.12-.8.02-1.61.05-2.41.09-2.54.07-5.09.16-7.64.29-1.09.05-2.19.11-3.29.17-2.37.13-4.74.29-7.12.46-1.07.08-2.14.15-3.22.23-2.81.23-5.64.48-8.48.77-.58.05-1.16.1-1.74.16-3.46.36-6.93.76-10.42,1.2-.77.1-1.54.21-2.31.31-2.72.36-5.45.75-8.19,1.16-1.07.16-2.16.33-3.23.51-2.55.4-5.11.83-7.68,1.28-1.03.18-2.06.36-3.1.55-3.1.57-6.21,1.17-9.34,1.8-.45.09-.89.17-1.33.27-3.62.75-7.27,1.55-10.92,2.4-.77.17-1.55.38-2.32.55-2.86.68-5.73,1.38-8.6,2.12-1.09.28-2.18.57-3.27.86-2.68.7-5.38,1.44-8.09,2.2-1.04.29-2.07.58-3.11.88-3.37.97-6.75,1.98-10.14,3.03-.3.1-.61.18-.91.28-3.77,1.18-7.57,2.42-11.38,3.7-.83.28-1.66.57-2.48.86-2.94,1.01-5.88,2.05-8.84,3.12-1.14.41-2.28.83-3.42,1.25-2.78,1.02-5.57,2.09-8.37,3.17-1.07.41-2.14.82-3.23,1.25-3.55,1.4-7.11,2.85-10.68,4.34-.26.1-.51.2-.77.3-3.9,1.64-7.82,3.34-11.75,5.09-.91.4-1.82.82-2.73,1.23-2.98,1.34-5.97,2.72-8.97,4.13-1.21.57-2.41,1.14-3.62,1.72-2.86,1.37-5.72,2.76-8.59,4.18-1.13.56-2.25,1.11-3.39,1.68-3.72,1.87-7.46,3.8-11.22,5.77-.2.11-.4.21-.61.32-4.01,2.11-8.03,4.3-12.07,6.54-1.03.57-2.07,1.16-3.11,1.75-2.99,1.68-5.99,3.38-9,5.12-1.29.75-2.58,1.5-3.87,2.26-2.91,1.71-5.82,3.45-8.73,5.22-1.2.72-2.39,1.43-3.59,2.17-3.88,2.38-7.75,4.79-11.65,7.28-.18.11-.37.23-.55.34-4.1,2.62-8.22,5.32-12.36,8.06-1.16.77-2.33,1.57-3.5,2.36-2.98,2-5.96,4.03-8.96,6.09-1.4.96-2.8,1.95-4.21,2.93-2.92,2.04-5.84,4.12-8.78,6.22-1.29.93-2.57,1.84-3.86,2.78-4.01,2.91-8.04,5.86-12.07,8.89-.16.12-.32.23-.48.35-4.2,3.15-8.41,6.39-12.64,9.66-1.27.99-2.55,2-3.82,3-3,2.35-6,4.73-9.02,7.15-1.47,1.18-2.95,2.37-4.42,3.56-3,2.44-6,4.91-9.02,7.41-1.32,1.1-2.64,2.18-3.96,3.29-4.29,3.6-8.59,7.24-12.91,10.97l85.84,11.65.05-.03,90.82-62.93-2.21,10.45-13.28,62.76,154.46,20.97,51.98-71.9,10.54,80.39,53.35,7.25,64.38-67.9-2.41,76.32,20.65,2.8,101.28-58.74-20.7,69.7,162.21,22.02c-89.77,5.71-240.95,31.73-354.14,135.22-.6.55-1.2,1.08-1.8,1.63-84.93,78.55-148,201.21-146.73,392.41.23,34.84,2.6,71.94,7.36,111.47l57.63-64.67v-.06l-1.43-110.48,7.43,7.68h0l44.62,46.07,103.71-116.37-30.58-83.29,72.56,36.19,35.82-40.2-20.32-91.33,61.95,44.65,13.86-15.56,7.89-116.82,46.23,56.12,132.4-148.57c.54,8.79,2.31,17.85,4.27,26.39,1.65,7.23,3.45,14.09,4.71,20.07l.18.86c6.18,30.22,10.06,60.87,13.06,91.54.36,3.61.69,7.19,1.02,10.79.31,3.39.61,6.8.89,10.19,2.64,32.08,4.02,64.27,4.2,96.48.04,6.4.02,12.81-.04,19.21-.34,39.98-2.46,79.94-6.08,119.85-.7,7.62-1.44,15.23-2.25,22.84-3.59,34.08-8.23,68.11-13.8,101.96-1.34,8.13-2.73,16.27-4.18,24.38-6.02,33.93-12.91,67.7-20.53,101.2-2,8.73-4.02,17.42-6.1,26.12-6.53,27.24-13.49,54.32-20.82,81.18-1.47,5.42-2.98,10.82-4.48,16.25-2.39,8.63-4.82,17.25-7.3,25.89-5.62,19.59-11.42,39.11-17.47,58.57-4.85,14.51-9.52,29.09-14.27,43.64-2.72,8.43-5.48,16.86-8.29,25.26-2.5,7.48-5.02,14.95-7.64,22.41-10.49,29.99-23.04,58.85-35.64,88-2.74,6.37,1.21,7.63,6.89,7.84,7.82.31,15.59-.71,23.39-.71,10.52,0,21.05.02,31.56.02h64.15c35.07,0,70.12,0,105.17-.02,17.54,0,35.06-.01,52.6-.01,1.36,0,2.88.12,4.45.26,1.47.11,2.98.21,4.46.23.07,0,.16.01.24.01.04,0,.07,0,.1,0,.89,0,1.77-.07,2.61-.17.19-.03.37-.06.56-.09.86-.14,1.69-.34,2.44-.66,1.48-.64,2.71-1.69,3.52-3.32,2.41-4.93,1.82-11.09,2.62-16.36,5.81-37.97,8.61-76.49,11.29-114.77.07-.9.12-1.79.19-2.68.05-.77.1-1.54.15-2.31.38-5.37.71-10.76,1.02-16.15.06-1.07.11-2.15.17-3.24.37-6.4.69-12.8,1.01-19.21.15-3.25.33-6.5.47-9.75.04-.88.09-1.76.12-2.64.02-.35.04-.69.05-1.04,0-.31.02-.63.04-.95.14-3.3.23-6.61.35-9.92.23-6.06.46-12.12.64-18.19.04-1.46.11-2.92.16-4.37,0-.14,0-.28,0-.42.02-.6.04-1.19.05-1.8,0-.37.02-.75.03-1.11,0-.12.01-.25.01-.39.06-2.09.07-4.17.12-6.26.23-9.23.41-18.46.55-27.69.05-3.27.12-6.54.16-9.81.01-.85.03-1.69.04-2.52.07-5.67.11-11.34.15-17,.05-6.09.06-12.18.08-18.27,0-1.06,0-2.14,0-3.2v-11.14c0-.81,0-1.62,0-2.44v-.84c0-1.35-.01-2.71-.02-4.06,0-.37,0-.74,0-1.12v-1.72c0-.62,0-1.21-.01-1.83,0-.49,0-.98,0-1.46,0-.9-.01-1.81-.02-2.7,0-.23,0-.46,0-.69,0-1.17,0-2.35-.02-3.51,0-.24,0-.48,0-.73,0-1-.02-2-.02-3,0-.22,0-.46,0-.69-.01-1.2-.02-2.41-.03-3.61v-.12c0-.85,0-1.7-.02-2.54v-.11c0-.19,0-.39,0-.59,0-.47,0-.93-.01-1.4,0-.58,0-1.16-.01-1.73-.13-13.9-.33-27.8-.59-41.7-.07-3.95-.16-7.89-.25-11.83-.03-1.37-.05-2.75-.09-4.14-.01-.52-.02-1.05-.03-1.57-.38-16.76-.86-33.52-1.44-50.27-.2-6.05-.48-12.09-.71-18.13-.36-9.56-.7-19.12-1.13-28.68-.14-2.96-.28-5.94-.42-8.92-.09-1.83-.17-3.67-.26-5.5-.07-1.36-.13-2.72-.2-4.08v-.02c-.38-7.68-.86-15.34-1.28-23.03-.53-9.74-1.02-19.49-1.62-29.22-.48-7.82-1.05-15.62-1.58-23.44-.75-11.05-1.46-22.12-2.29-33.18-.01-.17-.02-.34-.04-.52-.41-5.68-.86-11.35-1.3-17.02-.43-5.37-.94-10.74-1.39-16.12-.82-9.78-1.64-19.55-2.52-29.32-.79-8.67-1.63-17.33-2.46-25.99-.98-10.04-1.96-20.08-3.01-30.11-.28-2.7-.52-5.41-.81-8.1-.57-5.54-1.18-11.06-1.8-16.58-.72-6.75-1.51-13.49-2.28-20.23-1.17-10.04-2.38-20.08-3.62-30.13-.23-1.96-.48-3.91-.72-5.86-1.27-10.13-2.58-20.27-3.99-30.39-.05-.44-.11-.87-.17-1.3-.85-6.08-1.72-12.16-2.63-18.24-.2-1.41-.42-2.83-.63-4.25-.38-2.46-.77-4.9-1.15-7.35-.29-1.84-.55-3.67-.84-5.5-.76-4.71-1.57-9.41-2.38-14.12-.26-1.56-.52-3.14-.79-4.7-.55-3.16-1.15-6.32-1.73-9.48-.62-3.4-1.23-6.8-1.89-10.2-.54-2.8-1.12-5.6-1.68-8.4-.75-3.7-1.49-7.4-2.28-11.09-.58-2.72-1.18-5.44-1.78-8.16-.55-2.48-1.07-4.97-1.64-7.46,0-.03-.01-.06-.02-.09-.1-.41-.19-.81-.29-1.22-.02-.1-.04-.2-.07-.29-.08-.35-.17-.71-.25-1.07-.03-.11-.05-.21-.08-.33-.08-.32-.16-.67-.23-.99-.03-.14-.07-.27-.09-.41-.08-.32-.16-.66-.23-.98-.03-.12-.07-.24-.09-.37-.11-.45-.21-.9-.32-1.35-1.05-4.36-2.18-8.81-3.39-13.25-.12-.46-.22-.93-.35-1.39-.73-2.64-1.49-5.28-2.28-7.91-.05-.17-.12-.33-.17-.5-.99-3.25-2.04-6.49-3.18-9.7-.6-1.71-1.25-3.41-1.89-5.09-.15-.39-.29-.79-.44-1.19-.49-1.25-1.02-2.46-1.53-3.69-.36-.85-.7-1.72-1.07-2.57-.49-1.13-1.03-2.23-1.55-3.34-.24-.53-.48-1.06-.73-1.58l153.04,75.72,21.88-69.34,51.02,105.38,18.67,9.25,40.75-64.58,15.31,92.3,48.27,23.88,53.75-60.71,2.8,88.69,139.71,69.11,24.15-59.43,4.02-9.9,40,103,.02.06,77.65,38.41c-127.55-472.65-453.5-470.37-637.81-426.35Z"/>
  <path class="cls-3" d="M953.9,729.89l113.29-53.54-40.77-60.2,114.29,25.44,18.84-8.91-25.33-72.04,81.88,45.3,48.68-23.02-14.22-79.83,71.27,52.87,140.91-66.62-31.59-55.82-5.26-9.3,105.57,32.58.06.02,78.32-37.02c-6.32-2.72-12.58-5.32-18.81-7.87-1.44-.59-2.88-1.18-4.32-1.75-6.11-2.47-12.19-4.88-18.21-7.18-.71-.27-1.43-.53-2.15-.8-5.52-2.09-10.99-4.11-16.43-6.06-1.29-.46-2.57-.93-3.87-1.39-5.88-2.08-11.71-4.09-17.5-6.02-1.05-.34-2.09-.68-3.13-1.02-5.17-1.7-10.31-3.34-15.41-4.91-1.05-.32-2.1-.65-3.14-.97-5.69-1.73-11.32-3.38-16.92-4.95-1.18-.33-2.36-.65-3.53-.98-5.14-1.42-10.23-2.78-15.28-4.07-.68-.18-1.37-.36-2.03-.53-5.52-1.39-10.99-2.7-16.41-3.95-1.22-.28-2.44-.55-3.66-.82-5.41-1.22-10.81-2.38-16.14-3.45-.05,0-.1-.02-.15-.03-5.39-1.07-10.73-2.05-16.03-2.98-1.18-.21-2.35-.41-3.51-.61-5.23-.88-10.41-1.71-15.54-2.46-.51-.07-1.01-.14-1.52-.21-4.74-.68-9.44-1.29-14.11-1.84-1.1-.14-2.19-.27-3.29-.39-4.96-.57-9.9-1.08-14.77-1.52-.86-.07-1.7-.14-2.55-.21-4.34-.37-8.66-.69-12.94-.95-.93-.06-1.87-.13-2.8-.18-4.76-.27-9.48-.48-14.15-.63-1-.04-1.99-.05-2.98-.08-4.23-.11-8.43-.18-12.59-.19-.48,0-.97-.03-1.44-.03-.14,0-.27.02-.41.02-7.19,0-14.29.15-21.27.44-.17.01-.33.02-.5.03-6.84.3-13.57.73-20.22,1.29-.55.05-1.1.11-1.64.15-6.27.56-12.46,1.23-18.57,2.01-.71.09-1.39.18-2.09.27-6,.8-11.92,1.71-17.75,2.72-.65.11-1.3.22-1.96.34-5.94,1.06-11.8,2.22-17.57,3.5-.46.1-.93.2-1.4.3-6.13,1.37-12.17,2.85-18.11,4.45-.06.02-.11.02-.17.04-5.99,1.62-11.88,3.36-17.68,5.19-.4.13-.8.27-1.2.39-5.42,1.73-10.76,3.57-16.02,5.49-.59.21-1.16.43-1.74.64-5.11,1.89-10.14,3.86-15.09,5.92-.59.25-1.18.5-1.78.74-4.96,2.09-9.86,4.27-14.68,6.51-.5.23-.98.45-1.47.68-5.02,2.38-9.97,4.82-14.83,7.35-.23.12-.45.23-.66.34-5.04,2.63-9.99,5.36-14.85,8.16-.28.16-.54.31-.82.47-4.62,2.67-9.17,5.42-13.64,8.24-.48.3-.95.61-1.42.9-4.27,2.71-8.49,5.5-12.62,8.32-.53.37-1.05.73-1.57,1.09-4.11,2.84-8.15,5.74-12.11,8.68-.47.35-.95.7-1.4,1.05-4.09,3.05-8.09,6.16-12.03,9.32-.3.24-.59.47-.89.71-4.16,3.37-8.26,6.79-12.27,10.26-.15.12-.29.24-.42.36-3.91,3.39-7.73,6.83-11.49,10.32-.36.34-.72.68-1.09,1.02-3.53,3.29-7.01,6.62-10.41,10-.44.44-.89.88-1.33,1.32-3.34,3.33-6.61,6.68-9.82,10.07-.42.45-.84.88-1.25,1.32-3.27,3.47-6.46,6.96-9.6,10.48-.3.35-.62.69-.92,1.03-3.31,3.74-6.56,7.5-9.73,11.29-.1.12-.21.23-.3.36-3.23,3.86-6.38,7.74-9.47,11.65-.27.32-.52.66-.78.99-2.86,3.63-5.68,7.28-8.42,10.95-.35.48-.7.95-1.06,1.42-2.64,3.55-5.24,7.12-7.79,10.7-.35.5-.71,1.01-1.07,1.5-2.54,3.61-5.03,7.22-7.46,10.83-.29.44-.59.87-.89,1.3-2.52,3.77-4.98,7.54-7.39,11.3-.17.26-.34.52-.5.78-2.51,3.94-4.95,7.87-7.34,11.8-.19.31-.38.62-.57.93-2.23,3.7-4.41,7.39-6.54,11.07-.28.49-.55.97-.84,1.46-2.02,3.52-4,7.03-5.93,10.52-.3.55-.61,1.1-.91,1.65-1.89,3.46-3.75,6.91-5.55,10.33-.28.52-.55,1.05-.83,1.57-1.83,3.51-3.61,6.98-5.35,10.44-.13.26-.27.53-.41.8,0,0,0,.01,0,.02C936.22,451.32,935.98,144.03,486.95,0l34.74,79.36.06.02,101,44.78-10.07,3.56-60.49,21.34,62.5,142.8,88.46,6.95-63.15,50.85,21.59,49.32,91.5,19.62-66.42,37.68,8.36,19.09,102.88,55.89-70.28,18.62,68.34,156.12c-.15-.18-.31-.37-.46-.55-1.89-2.32-3.83-4.67-5.81-7.04-.32-.39-.64-.78-.98-1.17-2-2.39-4.05-4.8-6.15-7.24-.34-.4-.68-.79-1.03-1.2-2.12-2.45-4.29-4.93-6.51-7.42-.34-.39-.68-.77-1.02-1.16-2.25-2.52-4.55-5.07-6.9-7.62-.34-.37-.66-.73-1-1.09-2.41-2.61-4.86-5.24-7.36-7.88-.3-.32-.59-.63-.89-.94-2.57-2.7-5.2-5.41-7.87-8.13-.3-.31-.6-.61-.9-.92-2.73-2.78-5.52-5.56-8.37-8.35-.32-.3-.64-.62-.96-.93-2.76-2.7-5.57-5.4-8.43-8.11-.39-.37-.79-.74-1.18-1.11-2.79-2.61-5.61-5.23-8.48-7.83-.48-.44-.97-.88-1.46-1.32-2.81-2.54-5.67-5.07-8.56-7.6-.56-.48-1.12-.97-1.69-1.46-2.86-2.47-5.76-4.94-8.7-7.39-.62-.52-1.24-1.03-1.86-1.54-2.93-2.43-5.89-4.84-8.9-7.23-.66-.53-1.32-1.05-1.98-1.58-3-2.37-6.04-4.73-9.12-7.07-.7-.54-1.41-1.07-2.12-1.61-3.09-2.32-6.22-4.64-9.38-6.93-.72-.52-1.43-1.04-2.15-1.55-3.2-2.29-6.43-4.55-9.71-6.8-.72-.49-1.45-.99-2.18-1.48-3.32-2.26-6.68-4.48-10.09-6.68-.7-.46-1.4-.91-2.11-1.37-3.47-2.22-6.99-4.41-10.55-6.58-.66-.41-1.31-.8-1.97-1.2-3.66-2.2-7.36-4.36-11.09-6.48-.59-.34-1.17-.68-1.76-1.01-3.87-2.18-7.78-4.32-11.73-6.41-.48-.26-.97-.52-1.46-.78-4.14-2.18-8.32-4.3-12.55-6.37-.47-.23-.94-.46-1.41-.68-4.25-2.07-8.55-4.09-12.89-6.04-.47-.21-.95-.41-1.41-.62-4.22-1.88-8.48-3.71-12.79-5.48-.57-.23-1.16-.46-1.73-.69-4.24-1.72-8.51-3.39-12.83-4.99-.64-.24-1.29-.46-1.94-.7-4.28-1.56-8.6-3.08-12.96-4.52-.7-.23-1.4-.46-2.11-.68-4.34-1.41-8.71-2.77-13.14-4.05-.73-.21-1.47-.43-2.2-.63-4.42-1.26-8.88-2.46-13.38-3.59-.75-.18-1.5-.38-2.26-.55-4.52-1.11-9.09-2.15-13.7-3.12-.74-.16-1.48-.31-2.22-.47-4.66-.95-9.35-1.82-14.09-2.62-.71-.12-1.43-.24-2.14-.37-4.8-.78-9.64-1.48-14.52-2.11-.67-.09-1.33-.18-2-.26-4.98-.61-10-1.13-15.06-1.57-.59-.05-1.18-.11-1.77-.16-5.19-.43-10.42-.75-15.7-.98-.47-.02-.94-.05-1.41-.07-5.45-.22-10.93-.34-16.46-.35-.22,0-.44-.01-.67-.01-.13,0-.27,0-.41,0-3.27,0-6.55.04-9.86.12-.8.02-1.61.05-2.41.09-2.54.07-5.09.16-7.64.29-1.09.05-2.19.11-3.29.17-2.37.13-4.74.29-7.12.46-1.07.08-2.14.15-3.22.23-2.81.23-5.64.48-8.48.77-.58.05-1.16.1-1.74.16-3.46.36-6.93.76-10.42,1.2-.77.1-1.54.21-2.31.31-2.72.36-5.45.75-8.19,1.16-1.07.16-2.16.33-3.23.51-2.55.4-5.11.83-7.68,1.28-1.03.18-2.06.36-3.1.55-3.1.57-6.21,1.17-9.34,1.8-.45.09-.89.17-1.33.27-3.62.75-7.27,1.55-10.92,2.4-.77.17-1.55.38-2.32.55-2.86.68-5.73,1.38-8.6,2.12-1.09.28-2.18.57-3.27.86-2.68.7-5.38,1.44-8.09,2.2-1.04.29-2.07.58-3.11.88-3.37.97-6.75,1.98-10.14,3.03-.3.1-.61.18-.91.28-3.77,1.18-7.57,2.42-11.38,3.7-.83.28-1.66.57-2.48.86-2.94,1.01-5.88,2.05-8.84,3.12-1.14.41-2.28.83-3.42,1.25-2.78,1.02-5.57,2.09-8.37,3.17-1.07.41-2.14.82-3.23,1.25-3.55,1.4-7.11,2.85-10.68,4.34-.26.1-.51.2-.77.3-3.9,1.64-7.82,3.34-11.75,5.09-.91.4-1.82.82-2.73,1.23-2.98,1.34-5.97,2.72-8.97,4.13-1.21.57-2.41,1.14-3.62,1.72-2.86,1.37-5.72,2.76-8.59,4.18-1.13.56-2.25,1.11-3.39,1.68-3.72,1.87-7.46,3.8-11.22,5.77-.2.11-.4.21-.61.32-4.01,2.11-8.03,4.3-12.07,6.54-1.03.57-2.07,1.16-3.11,1.75-2.99,1.68-5.99,3.38-9,5.12-1.29.75-2.58,1.5-3.87,2.26-2.91,1.71-5.82,3.45-8.73,5.22-1.2.72-2.39,1.43-3.59,2.17-3.88,2.38-7.75,4.79-11.65,7.28-.18.11-.37.23-.55.34-4.1,2.62-8.22,5.32-12.36,8.06-1.16.77-2.33,1.57-3.5,2.36-2.98,2-5.96,4.03-8.96,6.09-1.4.96-2.8,1.95-4.21,2.93-2.92,2.04-5.84,4.12-8.78,6.22-1.29.93-2.57,1.84-3.86,2.78-4.01,2.91-8.04,5.86-12.07,8.89-.16.12-.32.23-.48.35-4.2,3.15-8.41,6.39-12.64,9.66-1.27.99-2.55,2-3.82,3-3,2.35-6,4.73-9.02,7.15-1.47,1.18-2.95,2.37-4.42,3.56-3,2.44-6,4.91-9.02,7.41-1.32,1.1-2.64,2.18-3.96,3.29-4.29,3.6-8.59,7.24-12.91,10.97l85.84,11.65.05-.03,90.82-62.93-2.21,10.45-13.28,62.76,154.46,20.97,51.98-71.9,10.54,80.39,53.35,7.25,64.38-67.9-2.41,76.32,20.65,2.8,101.28-58.74-20.7,69.7,162.21,22.02c-89.77,5.71-240.95,31.73-354.14,135.22-.6.55-1.2,1.08-1.8,1.63-84.93,78.55-148,201.21-146.73,392.41.23,34.84,2.6,71.94,7.36,111.47l57.63-64.67v-.06l-1.43-110.48h0l7.43,7.68h0l44.62,46.07,103.71-116.37-30.58-83.29,72.56,36.19,35.82-40.2-20.32-91.33,61.95,44.65,13.86-15.56,7.89-116.82,46.23,56.12,132.4-148.57c-.88-14.44,1.65-28.11,12.25-37.49.45-.4.84-.82,1.32-1.2,5.12-4.12,11.44-6.48,17.96-7.32,1.91-.24,3.75-.43,5.57-.56,1.82-.12,3.58-.18,5.32-.19.21,0,.43-.02.64-.02.3,0,.57.04.88.04.04,0,.07,0,.11,0,1.18.03,2.31.1,3.46.17,1.29.07,2.59.14,3.84.29,1.13.13,2.22.31,3.32.48,1.19.2,2.38.39,3.53.64,1.07.24,2.11.52,3.14.8,1.1.3,2.18.61,3.24.96,1.01.34,2,.71,2.98,1.1,1,.4,2,.81,2.98,1.25.95.44,1.88.9,2.81,1.39.93.49,1.84.99,2.74,1.52.9.54,1.78,1.09,2.64,1.67.86.56,1.69,1.15,2.52,1.76.84.62,1.66,1.25,2.47,1.91.79.64,1.55,1.32,2.32,2,.79.7,1.55,1.4,2.31,2.14.72.72,1.43,1.45,2.12,2.2.73.78,1.46,1.56,2.16,2.37.67.77,1.3,1.57,1.95,2.38.68.85,1.35,1.68,2,2.57.61.83,1.19,1.68,1.78,2.54.62.91,1.26,1.81,1.86,2.76.56.87,1.09,1.76,1.62,2.65.59.98,1.17,1.94,1.73,2.94.5.89.97,1.82,1.45,2.73.55,1.04,1.11,2.07,1.63,3.12.18.38.37.77.55,1.16l153.04,75.72,21.88-69.34,51.02,105.38,18.67,9.25,40.75-64.58,15.31,92.3,48.27,23.88,53.75-60.71,2.8,88.69,139.71,69.11,24.15-59.43,4.02-9.9,40,103,.02.06,77.65,38.41c-127.55-472.65-453.5-470.37-637.81-426.35Z"/>
  <path class="cls-5" d="M486.95,0l34.74,79.36.06.02,101,44.78-10.07,3.56-60.49,21.34,62.5,142.8,88.46,6.95-63.15,50.85,21.59,49.32,91.5,19.62-66.42,37.68,8.36,19.09,102.88,55.89-70.28,18.62,68.34,156.12h0c.15.19.29.36.44.55,2.12,2.61,4.17,5.18,6.17,7.7.22.28.44.55.66.83,2.14,2.71,4.21,5.38,6.21,8,.07.08.14.18.2.26,1.98,2.59,3.89,5.12,5.73,7.59.18.25.36.49.54.73,1.73,2.32,3.4,4.59,5,6.8.2.26.39.52.57.78,1.62,2.25,3.17,4.43,4.67,6.54.1.14.2.29.3.43,1.57,2.23,3.08,4.4,4.51,6.48.05.07.09.14.14.21,1.39,2.01,2.69,3.95,3.94,5.8.12.17.23.34.35.51,1.18,1.77,2.3,3.46,3.35,5.07.05.07.11.16.16.24.05-.2.12-.41.17-.61.24-.85.48-1.71.73-2.6.1-.33.19-.66.29-1,.34-1.18.68-2.38,1.05-3.62.01-.03.02-.05.02-.06,0-.03.01-.05.02-.07.02-.07.04-.13.06-.2.44-1.49.89-3.03,1.38-4.6.09-.29.17-.57.25-.86.49-1.6.99-3.24,1.52-4.92.11-.36.22-.72.33-1.07.54-1.71,1.09-3.46,1.68-5.25.09-.29.18-.59.28-.88.53-1.64,1.08-3.32,1.65-5.03.12-.36.23-.71.36-1.07.61-1.84,1.25-3.71,1.91-5.61.17-.5.34-1.01.52-1.51.66-1.89,1.32-3.82,2.03-5.76.17-.51.36-1.01.54-1.52.64-1.77,1.29-3.58,1.96-5.41.15-.4.29-.79.44-1.19.75-2.03,1.52-4.1,2.31-6.18.24-.63.48-1.26.73-1.89.77-2.05,1.58-4.13,2.41-6.23.25-.66.52-1.31.78-1.97.77-1.94,1.55-3.9,2.35-5.88.24-.6.48-1.2.73-1.8.82-2.01,1.67-4.05,2.53-6.1.29-.7.59-1.41.89-2.11.94-2.22,1.9-4.46,2.88-6.73.31-.7.62-1.41.93-2.12,1.01-2.31,2.04-4.63,3.1-6.98.23-.52.47-1.04.71-1.57.95-2.09,1.91-4.2,2.91-6.33.32-.68.62-1.34.94-2.03,1.11-2.38,2.25-4.77,3.41-7.18.37-.76.73-1.52,1.1-2.28,1.19-2.45,2.4-4.91,3.64-7.39.08-.16.16-.32.23-.49C936.22,451.32,935.98,144.03,486.95,0Z"/>
  <path class="cls-6" d="M796.39,706.54c2.12,2.61,4.17,5.18,6.17,7.7.22.28.44.55.66.83,2.14,2.71,4.21,5.38,6.21,8,.07.08.14.18.2.26,1.98,2.59,3.89,5.12,5.73,7.59.18.25.36.49.54.73,1.73,2.32,3.4,4.59,5,6.8.2.26.39.52.57.78,1.62,2.25,3.17,4.43,4.67,6.54.1.14.2.29.3.43,1.57,2.23,3.08,4.4,4.51,6.48.05.07.09.14.14.21,1.39,2.01,2.69,3.95,3.94,5.8.12.17.23.34.35.51,1.18,1.77,2.3,3.46,3.35,5.07.05.07.11.16.16.24.05-.2.12-.41.17-.61.24-.85.48-1.71.73-2.6.1-.33.19-.66.29-1,.34-1.18.68-2.38,1.05-3.62,24.97-152.4,8.85-313.28-60.54-451.05-37.25-73.97-94.56-143.33-167.93-177.93l-60.49,21.34,62.5,142.8,88.46,6.95-63.15,50.85,21.59,49.32,91.5,19.62-66.42,37.68,8.36,19.09,102.88,55.89-70.28,18.62,68.34,156.12h0c.15.19.29.36.44.55Z"/>
  <path class="cls-6" d="M805.7,778.17l-10.86-1.48-37.86-5.13c-89.77,5.71-240.95,31.73-354.14,135.22-.6.55-1.2,1.08-1.8,1.63-84.93,78.55-148,201.21-146.73,392.41.23,34.84,2.6,71.94,7.36,111.47l57.63-64.67v-.06l-1.43-110.48h0l7.43,7.68h0l44.62,46.07,103.71-116.37-30.58-83.29,72.56,36.19,35.82-40.2-20.32-91.33,61.95,44.65,13.86-15.56,7.89-116.82,46.23,56.12,132.4-148.57c-.88-14.44,1.65-28.11,12.25-37.49Z"/>
  <path class="cls-5" d="M794.84,776.69l-37.86-5.13c-89.77,5.71-240.95,31.73-354.14,135.22-.6.55-1.2,1.08-1.8,1.63-84.93,78.55-148,201.21-146.73,392.41.23,34.84,2.6,71.94,7.36,111.47l57.63-64.67v-.06l-1.43-110.48h0l7.43,7.68h0c.85-81.12,39.98-162.14,91.67-226.84,94.81-118.68,231.52-199.75,377.86-241.23Z"/>
  <path class="cls-1" d="M794.84,776.69l10.86,1.48c.45-.4.84-.82,1.32-1.2,5.12-4.12,11.44-6.48,17.96-7.32,1.91-.24,3.75-.43,5.57-.56,1.82-.12,3.58-.18,5.32-.19,1.03-.45,2.1-.91,3.23-1.39-.39.16-.79.33-1.16.49.09-.33.18-.66.27-1-118.41-104.25-267.22-177.08-424.38-189.85-13.46-1.09-27.12-1.67-40.81-1.67-70.23,0-141.84,15.08-198.52,52.42l-13.28,62.76,154.46,20.97,51.98-71.9,10.54,80.39,53.35,7.25,64.38-67.9-2.41,76.32,20.65,2.8,101.28-58.74-20.7,69.7,162.21,22.02,37.86,5.13Z"/>
  <path class="cls-1" d="M1187.64,457.38c-146.21,59.71-266.25,174.32-347.68,309.74-.06.03-.11.05-.16.07,21.91-9.36,62.45-24.96,114.1-37.3l113.29-53.54-40.77-60.2,114.29,25.44,18.84-8.91-25.33-72.04,81.88,45.3,48.68-23.02-14.22-79.83,71.27,52.87,140.91-66.62-31.59-55.82c-25.8-7.31-52.77-10.6-80.1-10.6-55.32,0-112.08,13.49-163.39,34.45Z"/>
  <path class="cls-6" d="M953.9,729.89c-51.65,12.34-92.18,27.95-114.1,37.3-.24.11-.46.2-.7.31-1.13.48-2.2.95-3.23,1.39.21,0,.43-.02.64-.02.3,0,.57.04.88.04.04,0,.07,0,.11,0,1.18.03,2.31.1,3.46.17,1.29.07,2.59.14,3.84.29,1.13.13,2.22.31,3.32.48,1.19.2,2.38.39,3.53.64,1.07.24,2.11.52,3.14.8,1.1.3,2.18.61,3.24.96,1.01.34,2,.71,2.98,1.1,1,.4,2,.81,2.98,1.25.95.44,1.88.9,2.81,1.39.93.49,1.84.99,2.74,1.52.9.54,1.78,1.09,2.64,1.67.86.56,1.69,1.15,2.52,1.76.84.62,1.66,1.25,2.47,1.91.79.64,1.55,1.32,2.32,2,.79.7,1.55,1.4,2.31,2.14.72.72,1.43,1.45,2.12,2.2.73.78,1.46,1.56,2.16,2.37.67.77,1.3,1.57,1.95,2.38.68.85,1.35,1.68,2,2.57.61.83,1.19,1.68,1.78,2.54.62.91,1.26,1.81,1.86,2.76.56.87,1.09,1.76,1.62,2.65.59.98,1.17,1.94,1.73,2.94.5.89.97,1.82,1.45,2.73.55,1.04,1.11,2.07,1.63,3.12.18.38.37.77.55,1.16l153.04,75.72,21.88-69.34,51.02,105.38,18.67,9.25,40.75-64.58,15.31,92.3,48.27,23.88,53.75-60.71,2.8,88.69,139.71,69.11,24.15-59.43,4.02-9.9,40,103,.02.06,77.65,38.41c-127.55-472.65-453.5-470.37-637.81-426.35Z"/>
  <path class="cls-5" d="M839.8,767.19c-.24.11-.46.2-.7.31-1.13.48-2.2.95-3.23,1.39.21,0,.43-.02.64-.02.3,0,.57.04.88.04,157.94-21.17,323.98,1.48,462.76,79.7,72.14,40.67,138.73,101.16,169.87,176.07l4.02-9.9,40,103,.02.06,77.65,38.41c-127.55-472.65-453.5-470.37-637.81-426.35-51.65,12.34-92.18,27.95-114.1,37.3Z"/>
  <g>
    <path class="cls-4" d="M859.63,1460.38c18.16-3.34,36.5-5.47,54.91-6.53,0,0,0-.02,0-.03,7.03-.41,14.06-.64,21.11-.72,1.18,0,2.36-.02,3.54-.02,11.54,0,23.03.61,34.54,1.23-.07-3.95-.16-7.89-.25-11.83-.03-1.37-.05-2.75-.09-4.14-.01-.52-.02-1.05-.03-1.57-12.48-1.65-25.13-2.36-37.71-2.7-3.4-.09-6.81-.13-10.22-.13-2.5,0-5.02.02-7.53.07,0,.01,0,.03-.01.05-20.91.39-41.81,2.36-62.46,5.79-26.5,4.39-52.62,11.29-77.84,20.55-.89.33-1.8.66-2.7,1-2,8.73-4.02,17.42-6.1,26.12,5.72-2.44,11.49-4.71,17.31-6.88,23.86-8.91,48.48-15.69,73.52-20.28Z"/>
    <path class="cls-4" d="M871,1340.27c19.26-2.9,38.75-3.96,58.22-3.6v-.08c4.37.08,8.74.24,13.1.47,9.29.48,18.55,1.37,27.77,2.62-.14-2.96-.28-5.94-.42-8.92-.09-1.83-.17-3.67-.26-5.5-.07-1.36-.13-2.72-.2-4.08v-.02c-8.92-1.49-17.91-2.58-26.89-3.39-3.94-.35-7.89-.63-11.84-.83,0,0,0,.02,0,.03-21.24-1.09-42.6-.08-63.67,2.77-22.85,3.09-45.41,8.5-67.2,16.09-1.34,8.13-2.73,16.27-4.18,24.38,2.12-.82,4.23-1.63,6.37-2.41,22.4-8.23,45.62-13.98,69.21-17.54Z"/>
    <path class="cls-4" d="M844.84,848.53c5.37-.99,10.8-1.67,16.27-2.12,0,0-.01-.02-.02-.03,4.74-.39,9.5-.58,14.24-.58,7.97,0,15.93.54,23.76,1.57,4.85.64,9.64,1.52,14.4,2.6-.73-2.64-1.49-5.28-2.28-7.91-.05-.17-.12-.33-.17-.5-1-3.25-2.04-6.49-3.18-9.7-1.79-.39-3.59-.75-5.39-1.07-11.19-2.03-22.42-3.05-33.67-3.05-4.79,0-9.59.18-14.39.55.01,0,.01.02.02.03-4.45.34-8.9.81-13.35,1.47-14.96,2.22-29.53,6.4-43.37,12.25,1.65,7.23,3.45,14.09,4.71,20.07,13.42-6.28,27.67-10.86,42.41-13.58Z"/>
    <path class="cls-4" d="M865.35,1688.88h-1.61c-6.04.02-12.07.15-18.11.37v.02c-44.73,1.66-89.29,8.86-132.3,21.17-2.98.84-5.94,1.72-8.88,2.63-2.72,8.43-5.48,16.86-8.29,25.26,4.36-1.48,8.74-2.9,13.14-4.27,23.13-7.17,46.7-12.83,70.55-16.91,18.77-3.21,37.71-5.41,56.73-6.7,0,0,0-.02.01-.03,13.29-.9,26.61-1.34,39.93-1.34,16.55,0,33.1.67,49.57,2,14.16,1.14,28.33,2.79,42.42,4.78l.76.12c.38-5.37.71-10.76,1.02-16.15-10.48-2.3-21.05-4.2-31.69-5.68-24.31-3.41-48.7-5.27-73.25-5.26Z"/>
    <path class="cls-4" d="M946.96,1559.7c-15.81-1.75-31.69-2.66-47.57-2.66-2.76,0-5.52.03-8.28.08,0,.03-.01.04-.02.05-5.2.1-10.39.26-15.59.56-45.05,2.61-89.65,11.73-132.02,27.24-2.39,8.63-4.82,17.25-7.3,25.89,6.23-2.54,12.54-4.94,18.89-7.21,27.36-9.68,55.56-16.61,84.21-21.22,15.2-2.45,30.57-4.05,45.98-4.93,0-.01.01-.02.01-.02,9.53-.55,19.09-.81,28.63-.81,4.03,0,8.05.05,12.06.14,14,.32,27.97,1.29,41.89,2.86,2.12.23,4.26.53,6.41.85.07-5.67.11-11.34.15-17-9.1-1.6-18.29-2.8-27.46-3.81Z"/>
    <path class="cls-4" d="M930.59,1191.63s0,.03,0,.03c-18.58-.86-37.17.23-55.6,3.13-20.33,3.19-40.21,8.66-59.32,16.25-.7,7.62-1.44,15.23-2.25,22.84.86-.37,1.72-.77,2.58-1.15,20.03-8.9,41.29-15.23,62.88-19.04,17.27-3.07,34.94-4.38,52.52-4.11v-.09c3.95.06,7.9.2,11.84.43,6.43.36,12.8,1.01,19.17,1.87-.41-5.68-.86-11.35-1.3-17.02-5.5-.86-11.02-1.55-16.58-2.12-4.64-.46-9.28-.81-13.93-1.03Z"/>
    <path class="cls-4" d="M917.11,1064.92c-10.99-.68-21.89-.84-32.44-.61-21.2.48-42.25,3.07-62.89,7.67.04,6.4.02,12.81-.04,19.21,20.63-5.02,41.76-8.04,62.92-9.14,11.68-.61,23.39-.5,35.07.11,0-.02,0-.05,0-.07,6.95.36,13.9.92,20.83,1.67,3.46.39,6.91.85,10.33,1.38-.57-5.54-1.18-11.06-1.8-16.58-10.59-1.82-21.33-2.99-31.99-3.66v.02Z"/>
    <path class="cls-4" d="M891.09,942.52s.02.07.04.1c-8.17.11-16.33.49-24.44,1.34-17.29,1.8-34.41,5.39-51.02,10.56.36,3.61.69,7.19,1.02,10.79.31,3.39.61,6.8.89,10.19,16.81-5.72,34.13-9.67,51.73-12.2,8.79-1.27,17.66-1.99,26.55-2.31,0-.01-.01-.02-.01-.04,3.18-.11,6.38-.17,9.57-.17,6.9,0,13.8.27,20.68.76,3.21.23,6.41.53,9.6.89-.2-1.41-.42-2.83-.63-4.25-.38-2.46-.77-4.9-1.15-7.35-.29-1.84-.57-3.67-.86-5.51h0c-1.86-.27-3.74-.52-5.62-.77-10.82-1.37-21.71-2.05-32.63-2.05-1.24,0-2.46.01-3.7.03Z"/>
  </g>
  <path class="cls-7" d="M974.51,1531.39v-.49c0-.81,0-1.62,0-2.44v-.84c0-1.35-.01-2.71-.02-4.06,0-.37,0-.74,0-1.12v-1.72c0-.62,0-1.21-.01-1.83,0-.49,0-.98,0-1.46,0-.9-.01-1.81-.02-2.7,0-.23,0-.46,0-.69,0-1.17,0-2.35-.02-3.51,0-.24,0-.48,0-.73,0-1-.02-2-.02-3,0-.22,0-.46,0-.69-.01-1.2-.02-2.41-.03-3.61v-.12c0-.85,0-1.7-.02-2.54v-.11c0-.19,0-.39,0-.59,0-.47,0-.93-.01-1.4,0-.58,0-1.16-.01-1.73-.13-13.9-.33-27.8-.59-41.7-.07-3.95-.16-7.89-.25-11.83-.03-1.37-.05-2.75-.09-4.14-.01-.52-.02-1.05-.03-1.57-.38-16.76-.86-33.52-1.44-50.27-.2-6.05-.48-12.09-.71-18.13-.36-9.56-.7-19.12-1.13-28.68-.14-2.96-.28-5.94-.42-8.92-.09-1.83-.17-3.67-.26-5.5-.07-1.36-.13-2.72-.2-4.08v-.02c-.38-7.68-.86-15.34-1.28-23.03-.53-9.74-1.02-19.49-1.62-29.22-.48-7.82-1.05-15.62-1.58-23.44-.75-11.05-1.46-22.12-2.29-33.18-.01-.17-.02-.34-.04-.52-.41-5.68-.86-11.35-1.3-17.02-.43-5.37-.94-10.74-1.39-16.12-.82-9.78-1.64-19.55-2.52-29.32-.79-8.67-1.63-17.33-2.46-25.99-.98-10.04-1.96-20.08-3.01-30.11-.28-2.7-.52-5.41-.81-8.1-.57-5.54-1.18-11.06-1.8-16.58-.72-6.75-1.51-13.49-2.28-20.23-1.17-10.04-2.38-20.08-3.62-30.13-.23-1.96-.48-3.91-.72-5.86-1.27-10.13-2.58-20.27-3.99-30.39-.05-.44-.11-.87-.17-1.3-.85-6.08-1.72-12.16-2.63-18.24-.2-1.41-.42-2.83-.63-4.25-.38-2.46-.77-4.9-1.15-7.35-.29-1.84-.57-3.67-.86-5.51h0c-.75-4.7-1.56-9.41-2.37-14.11-.26-1.56-.52-3.14-.79-4.7-.55-3.16-1.15-6.32-1.73-9.48-.62-3.4-1.23-6.8-1.89-10.2-.54-2.8-1.12-5.6-1.68-8.4-.75-3.7-1.49-7.4-2.28-11.09-.58-2.72-1.18-5.44-1.78-8.16-.55-2.48-1.07-4.97-1.64-7.46,0-.03-.01-.06-.02-.09-.1-.41-.19-.81-.29-1.22-.02-.1-.04-.2-.07-.29-.08-.35-.17-.71-.25-1.07-.03-.11-.05-.21-.08-.33-.08-.32-.16-.67-.23-.99-.03-.14-.07-.27-.09-.41-.08-.32-.16-.66-.23-.98-.03-.12-.07-.24-.09-.37-.11-.45-.21-.9-.32-1.35-1.05-4.36-2.18-8.81-3.39-13.25-.12-.46-.22-.93-.35-1.39-.73-2.64-1.49-5.28-2.28-7.91-.05-.17-.12-.33-.17-.5-1-3.25-2.04-6.49-3.18-9.7-.61-1.71-1.25-3.41-1.89-5.09-.15-.39-.29-.79-.44-1.19-.49-1.25-1.02-2.46-1.53-3.69-.36-.85-.7-1.72-1.07-2.57-.49-1.13-1.03-2.23-1.55-3.34-.24-.53-.48-1.06-.73-1.58-.18-.39-.37-.77-.55-1.16-.52-1.06-1.08-2.09-1.63-3.12-.48-.91-.95-1.84-1.45-2.73-.56-1-1.15-1.96-1.73-2.94-.53-.89-1.06-1.78-1.62-2.65-.6-.95-1.23-1.85-1.86-2.76-.59-.86-1.17-1.71-1.78-2.54-.65-.88-1.33-1.72-2-2.57-.64-.8-1.28-1.61-1.95-2.38-.7-.81-1.43-1.59-2.16-2.37-.69-.75-1.39-1.48-2.12-2.2-.76-.74-1.53-1.45-2.31-2.14-.77-.68-1.52-1.36-2.32-2-.8-.66-1.64-1.3-2.47-1.91-.83-.61-1.66-1.2-2.52-1.76-.87-.58-1.74-1.13-2.64-1.67-.89-.53-1.81-1.03-2.74-1.52-.93-.49-1.86-.95-2.81-1.39-.98-.44-1.98-.86-2.98-1.25-.98-.39-1.97-.76-2.98-1.1-1.06-.35-2.14-.66-3.24-.96-1.03-.28-2.08-.56-3.14-.8-1.15-.25-2.34-.45-3.53-.64-1.09-.17-2.18-.36-3.32-.48-1.24-.14-2.54-.21-3.84-.29-1.14-.07-2.29-.14-3.46-.17-.04,0-.07,0-.11,0-.3,0-.57-.04-.88-.04-.21,0-.43.02-.64.02-1.73.01-3.5.07-5.32.19,8.39,19.58,16.37,39.31,23.87,59.21.01,0,.01.02.02.03,2.26,6,4.48,12.01,6.65,18.05,0,.02.02.02.02.03,7.75,21.55,14.93,43.36,21.42,65.46,2.99,10.18,5.84,20.39,8.57,30.64,0,.03.02.07.04.1,1.61,6.09,3.19,12.2,4.72,18.33,0,.02,0,.03.01.04,8.56,34.32,15.66,69,21.25,103.92v.02c.91,5.72,1.79,11.44,2.63,17.17,0,.02,0,.05,0,.07,5.27,36.3,8.91,72.84,10.84,109.46,0,.01,0,.03,0,.03.3,5.95.59,11.88.8,17.84v.09c1.34,35.77,1.06,71.62-.91,107.38,0,0,0,.02,0,.03-.19,3.4-.39,6.81-.61,10.21-.2,3.14-.41,6.26-.64,9.4v.08c-2.36,32.58-6.15,65.08-11.32,97.35,0,.01,0,.03-.01.05-1.06,6.6-2.17,13.18-3.34,19.75,0,0,0,.02,0,.03-6.21,34.77-14.02,69.24-23.43,103.26,0,.03-.01.04-.02.05-1.88,6.78-3.82,13.56-5.81,20.3,0,0-.01.01-.01.02-11.24,37.92-24.48,75.25-39.64,111.75v.02c-2.95,7.09-5.96,14.13-9.05,21.16,0,0-.01.02-.01.03-22.15,50.35-48.02,99.04-77.49,145.44h19.78c35.07,0,70.12,0,105.17-.02,17.54,0,35.06-.01,52.6-.01,1.36,0,2.88.12,4.45.26,1.47.11,2.98.21,4.46.23.07,0,.16.01.24.01.04,0,.07,0,.1,0,.89,0,1.77-.07,2.61-.17.19-.03.37-.06.56-.09.86-.14,1.69-.34,2.44-.66,1.48-.64,2.71-1.69,3.52-3.32,2.41-4.93,1.82-11.09,2.62-16.36,5.81-37.97,8.61-76.49,11.29-114.77.07-.9.12-1.79.19-2.68.05-.77.1-1.54.15-2.31.38-5.37.71-10.76,1.02-16.15.06-.96.09-1.92.15-2.88.62-10.64,1.17-21.3,1.62-31.96.02-.35.04-.69.05-1.04,0-.31.02-.63.04-.95.14-3.3.23-6.61.35-9.92.23-6.06.46-12.12.64-18.19.04-1.46.11-2.92.16-4.37,0-.14,0-.28,0-.42.02-.6.04-1.19.05-1.8,0-.37.02-.75.03-1.11,0-.12.01-.25.01-.39.4-14.79.67-29.58.84-44.38.01-.63.03-1.28.04-1.91.07-5.67.11-11.34.15-17,.05-6.09.06-12.18.08-18.27,0-1.06,0-2.14,0-3.2v-10.65Z"/>
  <path class="cls-2" d="M938.6,1694.14c-24.31-3.41-48.7-5.27-73.25-5.26h-1.61c-6.04.02-12.07.15-18.11.37v.02c-2.95,7.09-5.96,14.13-9.05,21.16,13.29-.9,26.61-1.34,39.93-1.34,16.55,0,33.1.67,49.57,2,14.16,1.14,28.33,2.79,42.42,4.78l.76.12c.38-5.37.71-10.76,1.02-16.15-10.48-2.3-21.05-4.2-31.69-5.68Z"/>
  <path class="cls-2" d="M946.96,1559.7c-15.81-1.75-31.69-2.66-47.57-2.66-2.76,0-5.52.03-8.28.08,0,.03-.01.04-.02.05-1.88,6.78-3.82,13.56-5.81,20.3,9.53-.55,19.09-.81,28.63-.81,4.03,0,8.05.05,12.06.14,14,.32,27.97,1.29,41.89,2.86,2.12.23,4.26.53,6.41.85.07-5.67.11-11.34.15-17-9.1-1.6-18.29-2.8-27.46-3.81Z"/>
  <path class="cls-2" d="M935.66,1434.08c-3.4-.09-6.81-.13-10.22-.13-2.5,0-5.02.02-7.53.07,0,.01,0,.03-.01.05-1.06,6.6-2.17,13.18-3.34,19.75,7.03-.41,14.06-.64,21.11-.72,1.18,0,2.36-.02,3.54-.02,11.54,0,23.03.61,34.54,1.23-.07-3.95-.16-7.89-.25-11.83-.03-1.37-.05-2.75-.09-4.14-.01-.52-.02-1.05-.03-1.57-12.48-1.65-25.13-2.36-37.71-2.7Z"/>
  <path class="cls-2" d="M942.32,1317.79c-3.94-.35-7.89-.63-11.84-.83,0,0,0,.02,0,.03-.19,3.4-.39,6.81-.61,10.21-.2,3.14-.41,6.26-.64,9.4,4.37.08,8.74.24,13.1.47,9.29.48,18.55,1.37,27.77,2.62-.14-2.96-.28-5.94-.42-8.92-.09-1.83-.17-3.67-.26-5.5-.07-1.36-.13-2.72-.2-4.08v-.02c-8.92-1.49-17.91-2.58-26.89-3.39Z"/>
  <path class="cls-2" d="M944.52,1192.66c-4.64-.46-9.28-.81-13.93-1.03,0,.01,0,.03,0,.03.3,5.95.59,11.88.8,17.84,3.95.06,7.9.2,11.84.43,6.43.36,12.8,1.01,19.17,1.87-.41-5.68-.86-11.35-1.3-17.02-5.5-.86-11.02-1.55-16.58-2.12Z"/>
  <path class="cls-2" d="M917.11,1064.91v.02c.91,5.72,1.79,11.44,2.63,17.17,6.95.36,13.9.92,20.83,1.67,3.46.39,6.91.85,10.33,1.38-.57-5.54-1.18-11.06-1.8-16.58-10.59-1.82-21.33-2.99-31.99-3.66Z"/>
  <path class="cls-2" d="M933.05,945.3c-1.86-.27-3.74-.52-5.62-.77-10.82-1.37-21.71-2.05-32.63-2.05-1.24,0-2.46.01-3.7.03,0,.03.02.07.04.1,1.61,6.09,3.19,12.2,4.72,18.33,3.18-.11,6.38-.17,9.57-.17,6.9,0,13.8.27,20.68.76,3.21.23,6.41.53,9.6.89-.2-1.41-.42-2.83-.63-4.25-.38-2.46-.77-4.9-1.15-7.35-.29-1.84-.57-3.67-.86-5.51h0Z"/>
  <path class="cls-2" d="M907.87,831.86c-1.79-.39-3.59-.75-5.39-1.07-11.19-2.03-22.42-3.05-33.67-3.05-4.79,0-9.59.18-14.39.55.01,0,.01.02.02.03,2.26,6,4.48,12.01,6.65,18.05,4.74-.39,9.5-.58,14.24-.58,7.97,0,15.93.54,23.76,1.57,4.85.64,9.64,1.52,14.4,2.6-.73-2.64-1.49-5.28-2.28-7.91-.05-.17-.12-.33-.17-.5-1-3.25-2.04-6.49-3.18-9.7h0Z"/>
</svg>